<?xml version="1.0" encoding="utf-8"?>
<!-- Svg Vector Icons : http://www.onlinewebfonts.com/icon -->
<!DOCTYPE svg PUBLIC "-//W3C//DTD SVG 1.1//EN" "http://www.w3.org/Graphics/SVG/1.1/DTD/svg11.dtd">
<svg version="1.1" xmlns="http://www.w3.org/2000/svg" xmlns:xlink="http://www.w3.org/1999/xlink" x="0px" y="0px" viewBox="0 0 1000 1000" enable-background="new 0 0 1000 1000" xml:space="preserve">
<metadata> Svg Vector Icons : http://www.onlinewebfonts.com/icon </metadata>
<g><path d="M499.7,248.9c158.4,0,302.8,60.2,413.5,159l76.8-87.6C858.9,202.9,687.6,120.8,499.7,120.8c-187.7,0-358.7,81.9-489.7,199l76.7,87.7C197.3,308.9,341.4,248.9,499.7,248.9z"/><path d="M499.7,501.7c95,0,181.7,35.6,248.6,94.2l81.3-92.7c-88.5-78.4-203.6-129.6-329.9-129.6c-126,0-241.1,51.1-329.5,129.2l81.2,92.8C318.2,537.2,404.8,501.7,499.7,501.7z"/><path d="M666.9,688.5c-45.3-38.8-103.6-65.6-167.3-65.6c-63.6,0-121.8,26.8-167.1,65.5l167.1,190.8L666.9,688.5z"/></g>
</svg>